<svg xmlns="http://www.w3.org/2000/svg" width="24.414" height="21.864" viewBox="0 0 24.414 21.864">
  <g id="CART" transform="translate(0.75 0.75)">
    <g id="Group_23" data-name="Group 23" transform="translate(0 0)">
      <path id="Icon_awesome-shopping-cart" data-name="Icon awesome-shopping-cart" d="M21.005,11.985l1.88-8.273a.955.955,0,0,0-.931-1.166H6.332L5.968.763A.955.955,0,0,0,5.033,0H.955A.955.955,0,0,0,0,.955v.636a.955.955,0,0,0,.955.955H3.734l2.794,13.66a2.228,2.228,0,1,0,2.667.341h8.338a2.227,2.227,0,1,0,2.53-.414l.219-.966A.955.955,0,0,0,19.351,14H8.675l-.26-1.273H20.074A.955.955,0,0,0,21.005,11.985Z" fill="none" stroke="#fff" stroke-width="1.5"/>
    </g>
  </g>
</svg>
