<svg id="Group_109" data-name="Group 109" xmlns="http://www.w3.org/2000/svg" xmlns:xlink="http://www.w3.org/1999/xlink" width="25.169" height="25.206" viewBox="0 0 25.169 25.206">
  <defs>
    <clipPath id="clip-path">
      <rect id="Rectangle_18" data-name="Rectangle 18" width="25.169" height="25.206"/>
    </clipPath>
  </defs>
  <g id="Group_25" data-name="Group 25" clip-path="url(#clip-path)">
    <path id="Path_13" data-name="Path 13" d="M11.552,0h2.065a1.278,1.278,0,0,0,.144.029A11.656,11.656,0,0,1,19.119,1.8a12.374,12.374,0,0,1,6.016,11.891A11.615,11.615,0,0,1,23.6,18.728a12.446,12.446,0,0,1-13.4,6.223,12.283,12.283,0,0,1-9.774-9A13.115,13.115,0,0,1,0,13.616V11.552c.065-.453.1-.913.2-1.358A12.485,12.485,0,0,1,9.12.456,13.041,13.041,0,0,1,11.552,0M9.444,11.828c.7,0,1.392-.007,2.088,0,.224,0,.3-.068.3-.3-.009-1.114,0-2.228,0-3.341,0-.306-.012-.318-.321-.318-1.106,0-2.211.006-3.317-.005a.362.362,0,0,0-.4.3A14.154,14.154,0,0,0,7.1,11.526c-.02.224.049.309.282.305.688-.011,1.376,0,2.064,0m6.259,0c.7,0,1.392-.006,2.088,0,.211,0,.3-.062.28-.283A13.857,13.857,0,0,0,17.35,8.1a.3.3,0,0,0-.326-.224q-1.708.007-3.415,0c-.2,0-.273.073-.272.275q.009,1.707,0,3.415c0,.207.079.27.277.268.7-.008,1.392,0,2.088,0m-6.23,1.513c-.7,0-1.392.007-2.088,0-.228,0-.308.072-.287.3a14.014,14.014,0,0,0,.709,3.4.322.322,0,0,0,.354.256c1.122-.007,2.244-.009,3.366,0,.242,0,.307-.088.305-.318q-.014-1.671,0-3.341c0-.223-.066-.3-.3-.3-.688.012-1.376,0-2.064,0m6.251,0c-.7,0-1.392.007-2.088,0-.225,0-.3.07-.3.3.009,1.114,0,2.228,0,3.341,0,.3.012.317.322.317,1.106,0,2.211,0,3.317,0a.349.349,0,0,0,.39-.276,14.146,14.146,0,0,0,.7-3.38c.02-.225-.051-.308-.283-.3-.688.011-1.376,0-2.064,0M3.514,11.828H5.159c.375,0,.4-.006.418-.371A14.121,14.121,0,0,1,6.2,8.138c.06-.193.026-.266-.189-.265q-1.6.01-3.192,0a.348.348,0,0,0-.368.247,11.588,11.588,0,0,0-.9,3.426c-.021.2.032.288.247.285.573-.009,1.146,0,1.719,0m18.115,0c.581,0,1.162,0,1.743,0,.19,0,.271-.063.25-.26a11.492,11.492,0,0,0-.935-3.518.261.261,0,0,0-.263-.177q-1.657,0-3.315,0c-.167,0-.2.074-.155.215.075.251.16.5.22.754a14.554,14.554,0,0,1,.414,2.588c.02.387.042.4.42.4h1.621M3.551,13.341c-.581,0-1.162.005-1.743,0-.2,0-.283.064-.261.273a11.493,11.493,0,0,0,.92,3.472.289.289,0,0,0,.29.211q1.645,0,3.29,0c.18,0,.209-.075.163-.229-.081-.266-.163-.532-.229-.8a13.7,13.7,0,0,1-.406-2.589c-.011-.228-.084-.352-.356-.341-.556.022-1.113.007-1.669.007m18.087,0H20.017c-.387,0-.4.007-.428.388a13.933,13.933,0,0,1-.618,3.295c-.067.215-.013.274.2.273,1.048-.007,2.1-.009,3.143,0a.392.392,0,0,0,.417-.286,11.711,11.711,0,0,0,.885-3.381c.023-.214-.042-.3-.264-.293-.573.01-1.146,0-1.719,0M10.071,1.806c-.1.018-.163.025-.224.041A11.1,11.1,0,0,0,3.607,6.1c-.04.054-.129.11-.077.188s.137.035.207.035c.941,0,1.882-.006,2.823.006a.447.447,0,0,0,.472-.291,14.83,14.83,0,0,1,2.27-3.4c.242-.274.493-.54.768-.84m5.03,0a1.183,1.183,0,0,0,.078.1,15.46,15.46,0,0,1,3,4.219.352.352,0,0,0,.376.2c.949,0,1.9,0,2.847,0,.079,0,.187.037.231-.034.058-.094-.052-.161-.1-.227A11.141,11.141,0,0,0,16.97,2.413,9.721,9.721,0,0,0,15.1,1.8m-5.043,21.56A.557.557,0,0,0,10,23.276a15.529,15.529,0,0,1-3.018-4.237.336.336,0,0,0-.352-.2c-.957,0-1.914,0-2.872,0-.079,0-.187-.038-.23.037-.054.094.055.16.1.227a11.144,11.144,0,0,0,4.542,3.641,9.662,9.662,0,0,0,1.878.616m5.061-.023a.273.273,0,0,0,.062.008,1.345,1.345,0,0,0,.145-.027,11.1,11.1,0,0,0,6.238-4.257c.04-.054.127-.108.075-.189-.038-.059-.121-.033-.184-.033-.957,0-1.915.005-2.872-.005a.415.415,0,0,0-.435.27,14.979,14.979,0,0,1-2.314,3.455c-.232.261-.472.514-.715.778m-3.322-21a.28.28,0,0,0-.061.026A14.13,14.13,0,0,0,8.71,6.119c-.123.22.023.208.165.208H11.48c.344,0,.348,0,.348-.34q0-1.7,0-3.392a.434.434,0,0,0-.031-.253m1.545,20.5a.76.76,0,0,0,.108-.058,14.225,14.225,0,0,0,3.007-3.732c.115-.206,0-.216-.156-.215-.885,0-1.769.007-2.654,0-.238,0-.312.079-.309.314.011.868,0,1.736,0,2.6v1.09m.015-20.527c-.008.079-.014.111-.014.143,0,1.2,0,2.4,0,3.606,0,.212.09.264.282.263.883-.006,1.766,0,2.649,0,.285,0,.294-.017.153-.27a14.251,14.251,0,0,0-2.248-2.992,5.962,5.962,0,0,0-.819-.748M11.8,22.857a.783.783,0,0,0,.029-.127c0-1.218,0-2.437,0-3.655,0-.212-.116-.236-.283-.235-.883,0-1.766,0-2.649,0-.282,0-.291.019-.149.272a14.484,14.484,0,0,0,2.7,3.439c.1.1.216.19.347.3"/>
  </g>
</svg>
