<svg xmlns="http://www.w3.org/2000/svg" width="32" height="26" viewBox="0 0 32 26">
  <g id="Group_142101" data-name="Group 142101" transform="translate(-1373 -2983)">
    <rect id="Rectangle_161314" data-name="Rectangle 161314" width="32" height="26" rx="8" transform="translate(1373 2983)" fill="#f57a38"/>
    <g id="Group_142090" data-name="Group 142090" transform="translate(1382.05 2987) rotate(8)">
      <g id="Group_142091" data-name="Group 142091" transform="translate(0 0)">
        <path id="Path_12418" data-name="Path 12418" d="M12.382,16.315A8.4,8.4,0,0,1,11,16.025a11.358,11.358,0,0,1-3.2-1.641A25.848,25.848,0,0,1,2.308,9.028a12.97,12.97,0,0,1-1.758-3A7.283,7.283,0,0,1,.02,4.009.5.5,0,0,0,0,3.933V2.882c.053-.243.079-.491.147-.731a1.893,1.893,0,0,1,.825-1.13q.72-.454,1.457-.88a.959.959,0,0,1,1.26.233,1.43,1.43,0,0,1,.1.127q1.051,1.575,2.1,3.151a1,1,0,0,1-.027,1.263,2.616,2.616,0,0,1-.361.311c-.3.235-.6.468-.9.7s-.312.38-.139.711a12.27,12.27,0,0,0,2.34,2.977A13.018,13.018,0,0,0,9.049,11.5c.22.137.448.263.675.389a.416.416,0,0,0,.625-.122c.288-.361.568-.727.852-1.091a.994.994,0,0,1,1.467-.24q1.571,1.043,3.138,2.091a1.056,1.056,0,0,1,.448.54c.013.04.027.082.074.1v.446c-.016.013-.039.023-.047.04a18.159,18.159,0,0,1-.957,1.645,1.912,1.912,0,0,1-1.272.9c-.206.047-.414.08-.622.12Zm.388-.568A4.03,4.03,0,0,0,13.6,15.7a1.613,1.613,0,0,0,1.293-.786c.243-.423.5-.837.751-1.256a.43.43,0,0,0-.15-.643q-1.568-1.047-3.137-2.092a.444.444,0,0,0-.7.112c-.287.368-.572.737-.86,1.1a.962.962,0,0,1-1.3.281c-.267-.142-.53-.291-.786-.452A13.681,13.681,0,0,1,6.38,10.023,12.892,12.892,0,0,1,3.927,6.892a1,1,0,0,1,.287-1.4q.541-.419,1.08-.84a.435.435,0,0,0,.114-.665Q4.352,2.4,3.291.808a.421.421,0,0,0-.62-.141q-.663.395-1.322.8A1.367,1.367,0,0,0,.892,1.9,2.756,2.756,0,0,0,.564,3.385,5.75,5.75,0,0,0,.905,5.348,11.506,11.506,0,0,0,2.558,8.4a25.988,25.988,0,0,0,4.365,4.587,14.158,14.158,0,0,0,3.291,2.125,6.7,6.7,0,0,0,2.557.634" transform="translate(0 0)" fill="#fff" stroke="#fff" stroke-width="1"/>
      </g>
    </g>
  </g>
</svg>
