<svg id="Icon_bag-16" data-name="Icon/bag-16" xmlns="http://www.w3.org/2000/svg" width="13" height="13" viewBox="0 0 13 13">
  <rect id="Box" width="13" height="13" transform="translate(0 0)" fill="none"/>
  <path id="Icon_bag-16-2" data-name="Icon/bag-16" d="M.573,12.842A.579.579,0,0,1,0,12.258V2.706s0-.01,0-.015v0s0-.008,0-.013H0a.583.583,0,0,1,.167-.382L2.25.171A.563.563,0,0,1,2.655,0H8.9a.563.563,0,0,1,.405.171L11.39,2.294a.583.583,0,0,1,.167.381h0s0,.008,0,.013v0s0,.01,0,.015v9.552a.579.579,0,0,1-.573.584Zm.573-1.167h9.267V3.29H1.145ZM9.6,2.123l-.937-.955H2.892l-.937.955ZM2.6,5.36a.573.573,0,1,1,1.145,0,2.031,2.031,0,1,0,4.061,0,.573.573,0,1,1,1.145,0,3.176,3.176,0,1,1-6.351,0Z" transform="translate(0.642)" fill="#fff"/>
</svg>
