<svg xmlns="http://www.w3.org/2000/svg" width="54.044" height="73.436" viewBox="0 0 54.044 73.436">
  <g id="logoShort" transform="translate(-2093.36 174.151)">
    <path id="Path_39337" data-name="Path 39337" d="M40.355,13.923,46.8,16.43a21.17,21.17,0,0,0-41.723,2.9h5.3a15.9,15.9,0,0,1,29.976-5.4" transform="translate(2094.44 -174.151)" fill="#f57a38"/>
    <path id="Path_39338" data-name="Path 39338" d="M25.546,55.15A36.2,36.2,0,0,1,13.571,43.656C11.3,45.7,9.113,47.833,7.015,49.993A58.134,58.134,0,0,0,21.27,64.266a7.346,7.346,0,0,0,8.562-.012A56.025,56.025,0,0,0,46.351,46.336c.2-5.965-2.127-8.038-6.759-6.684q-3.847,9.116-14.045,15.5" transform="translate(2094.851 -166.351)" fill="#f57a38" fill-rule="evenodd"/>
    <path id="Path_39339" data-name="Path 39339" d="M26.746,31.334A143,143,0,0,1,40.791,42.857c2.3,2.131,4.545,4.349,6.759,6.683A45.9,45.9,0,0,0,52.1,38.247a79.24,79.24,0,0,0-25.35-15.124A79.7,79.7,0,0,0,1.367,38.247,48.292,48.292,0,0,0,5.912,49.54,146.484,146.484,0,0,1,26.746,31.334" transform="translate(2093.651 -169.557)" fill="#f57a38" fill-rule="evenodd"/>
    <path id="Path_39340" data-name="Path 39340" d="M22.3,18.786Q38.82,27.6,48.669,35.177A60.255,60.255,0,0,0,48.9,19.419,80.712,80.712,0,0,0,35.41,13.888c-8.1-.547-12.528,1.037-13.111,4.9" transform="translate(2098.098 -171.412)" fill="#f9b020" fill-rule="evenodd"/>
    <path id="Path_39341" data-name="Path 39341" d="M.637,35.485Q15.892,24.6,27.037,19.094a59.915,59.915,0,0,1,13.111-4.9l-.127-.038a44.883,44.883,0,0,0-26.342.105A80.151,80.151,0,0,0,.4,19.727,60.255,60.255,0,0,0,.637,35.485" transform="translate(2093.36 -171.72)" fill="#f57a38" fill-rule="evenodd"/>
  </g>
</svg>
