<svg xmlns="http://www.w3.org/2000/svg" width="20.9" height="14" viewBox="0 0 20.9 14">
  <path id="visibility_FILL0_wght300_GRAD0_opsz24" d="M12,15.575A4.056,4.056,0,0,0,16.075,11.5,4.056,4.056,0,0,0,12,7.425,4.056,4.056,0,0,0,7.925,11.5,4.056,4.056,0,0,0,12,15.575ZM12,14.2a2.69,2.69,0,0,1-2.7-2.7A2.689,2.689,0,0,1,12,8.8a2.687,2.687,0,0,1,2.7,2.7A2.689,2.689,0,0,1,12,14.2Zm0,4.3a11.055,11.055,0,0,1-6.287-1.9A11.116,11.116,0,0,1,1.55,11.5,11.258,11.258,0,0,1,12,4.5a11.255,11.255,0,0,1,10.45,7,11.118,11.118,0,0,1-4.162,5.1A11.059,11.059,0,0,1,12,18.5Zm0-7ZM12,17a9.545,9.545,0,0,0,5.188-1.488A9.771,9.771,0,0,0,20.8,11.5a9.777,9.777,0,0,0-3.612-4.013A9.549,9.549,0,0,0,12,6,9.549,9.549,0,0,0,6.812,7.487,9.777,9.777,0,0,0,3.2,11.5a9.771,9.771,0,0,0,3.612,4.012A9.545,9.545,0,0,0,12,17Z" transform="translate(-1.55 -4.5)" fill="#fff"/>
</svg>
